<?xml version="1.0" standalone="no"?>
<!DOCTYPE svg PUBLIC "-//W3C//DTD SVG 20010904//EN"
 "http://www.w3.org/TR/2001/REC-SVG-20010904/DTD/svg10.dtd">
<svg version="1.0" xmlns="http://www.w3.org/2000/svg"
 width="129.000000pt" height="128.000000pt" viewBox="0 0 129.000000 128.000000"
 preserveAspectRatio="xMidYMid meet">

<g transform="translate(0.000000,128.000000) scale(0.100000,-0.100000)"
fill="#64a19d" stroke="none">
<path d="M374 1011 c-12 -5 -31 -23 -43 -39 -20 -29 -21 -41 -21 -310 0 -274
0 -280 23 -313 22 -33 25 -34 107 -41 124 -10 315 5 370 30 62 27 136 101 168
170 23 49 27 70 27 152 0 82 -4 103 -27 152 -34 73 -97 136 -173 173 -58 28
-65 29 -235 32 -96 1 -185 -1 -196 -6z"/>
<path d="M979 406 c-40 -57 -117 -113 -186 -136 -57 -19 -89 -22 -239 -24
-115 -1 -170 -4 -163 -11 6 -6 77 -10 172 -10 199 0 269 16 343 77 47 39 112
123 102 133 -3 3 -16 -10 -29 -29z"/>
</g>
</svg>
